# xmcd CD database file
#
# Track frame offsets:
#	182
#	8520
#	25615
#	39232
#	58255
#	69935
#	88402
#	100082
#	121565
#	137900
#	150730
#	168340
#	197402
#	221482
#	233252
#	245360
#	276610
#
# Disc length: 3966 seconds
#
# Revision: 0
# Processed by: cddbd v1.5.2PL0 Copyright (c) Steve Scherf et al.
# Submitted via: CDex 1.70beta2
#
DISCID=d60f7c11
DTITLE=Duke Ellington - The Great Paris Concert [CD1]
DYEAR=1900
DGENRE=Jazz
TTITLE0=Kinda Dukish
TTITLE1=Rockin' in Rhythm
TTITLE2=On the Sunny Side of the Street
TTITLE3=The Star-Crossed Lovers
TTITLE4=All of Me
TTITLE5=Theme from "The Asphalt Jungle"
TTITLE6=Concerto for Cootie
TTITLE7=Tutti for Cootie
TTITLE8=Suite Thursday - I. Misfit Blues
TTITLE9=Suite Thursday - II. Schwiphti
TTITLE10=Suite Thursday - III. Zweet Zurzday
TTITLE11=Suite Thursday - IV. Lay-By
TTITLE12=Perdido
TTITLE13=The Eighth Veil
TTITLE14=Rose of the Rio Grande
TTITLE15=Cop Out
TTITLE16=Bula
EXTD=
EXTT0=
EXTT1=
EXTT2=
EXTT3=
EXTT4=
EXTT5=
EXTT6=
EXTT7=
EXTT8=
EXTT9=
EXTT10=
EXTT11=
EXTT12=
EXTT13=
EXTT14=
EXTT15=
EXTT16=
PLAYORDER=
